<?xml version="1.0" standalone="no"?>
<!DOCTYPE svg PUBLIC "-//W3C//DTD SVG 20010904//EN"
 "http://www.w3.org/TR/2001/REC-SVG-20010904/DTD/svg10.dtd">
<svg version="1.0" xmlns="http://www.w3.org/2000/svg"
 width="169.000000pt" height="169.000000pt" viewBox="0 0 169.000000 169.000000"
 preserveAspectRatio="xMidYMid meet">
<metadata>
Created by potrace 1.14, written by Peter Selinger 2001-2017
</metadata>
<g transform="translate(0.000000,169.000000) scale(0.100000,-0.100000)"
fill="#000000" stroke="none">
<path d="M705 1532 c-200 -13 -575 -106 -575 -143 0 -5 7 -24 16 -40 11 -21
21 -29 32 -26 9 3 62 22 117 41 55 20 101 36 103 35 1 0 26 5 55 11 86 17 108
21 182 29 70 8 355 6 430 -2 83 -10 233 -46 320 -77 50 -18 97 -34 105 -37 10
-3 22 8 33 32 9 20 17 37 17 39 0 15 -235 86 -368 110 -138 26 -331 37 -467
28z"/>
<path d="M535 1383 c-143 -23 -345 -88 -345 -110 0 -16 64 -71 124 -107 l60
-36 10 32 c15 45 66 69 166 75 l78 6 11 -39 c5 -22 17 -82 25 -134 18 -105 20
-119 41 -235 8 -44 17 -93 20 -110 3 -16 12 -68 20 -115 9 -47 18 -101 21
-120 3 -19 9 -53 14 -75 5 -22 12 -56 15 -75 20 -121 39 -214 41 -205 2 6 12
63 24 128 11 64 29 168 40 230 11 61 22 126 25 142 5 32 18 97 20 105 1 3 5
30 10 60 5 30 9 57 10 60 0 3 4 26 8 51 7 43 11 65 21 114 2 11 12 64 21 119
l18 99 83 -6 c100 -7 149 -27 163 -68 5 -16 15 -29 21 -29 25 0 95 47 153 103
28 27 29 29 11 41 -24 16 -154 62 -219 76 -82 19 -131 27 -206 36 l-55 6 -69
-83 c-38 -46 -72 -88 -76 -92 -3 -5 -39 33 -78 83 -82 103 -69 99 -226 73z"/>
</g>
</svg>
